%TF.GenerationSoftware,KiCad,Pcbnew,8.0.6*%
%TF.CreationDate,2025-12-04T15:04:16-08:00*%
%TF.ProjectId,MEMSpcb,4d454d53-7063-4622-9e6b-696361645f70,rev?*%
%TF.SameCoordinates,Original*%
%TF.FileFunction,Copper,L2,Inr*%
%TF.FilePolarity,Positive*%
%FSLAX46Y46*%
G04 Gerber Fmt 4.6, Leading zero omitted, Abs format (unit mm)*
G04 Created by KiCad (PCBNEW 8.0.6) date 2025-12-04 15:04:16*
%MOMM*%
%LPD*%
G01*
G04 APERTURE LIST*
%TA.AperFunction,ComponentPad*%
%ADD10R,1.350000X1.350000*%
%TD*%
%TA.AperFunction,ComponentPad*%
%ADD11O,1.350000X1.350000*%
%TD*%
%TA.AperFunction,ViaPad*%
%ADD12C,0.800000*%
%TD*%
G04 APERTURE END LIST*
D10*
%TO.N,+3.3V*%
%TO.C,J2*%
X124455000Y-82575000D03*
D11*
%TO.N,/SCK*%
X126455000Y-82575000D03*
%TO.N,GND*%
X124455000Y-84575000D03*
X126455000Y-84575000D03*
%TO.N,/WS*%
X124455000Y-86575000D03*
%TO.N,/THSEL*%
X126455000Y-86575000D03*
%TO.N,/WAKE*%
X124455000Y-88575000D03*
%TO.N,/SD*%
X126455000Y-88575000D03*
%TD*%
D12*
%TO.N,+3.3V*%
X115824000Y-84836000D03*
X121920000Y-82296000D03*
%TD*%
%TA.AperFunction,Conductor*%
%TO.N,+3.3V*%
G36*
X133547039Y-79775685D02*
G01*
X133592794Y-79828489D01*
X133604000Y-79880000D01*
X133604000Y-94364000D01*
X133584315Y-94431039D01*
X133531511Y-94476794D01*
X133480000Y-94488000D01*
X109090000Y-94488000D01*
X109022961Y-94468315D01*
X108977206Y-94415511D01*
X108966000Y-94364000D01*
X108966000Y-86043798D01*
X119002500Y-86043798D01*
X119002500Y-86168201D01*
X119026766Y-86290194D01*
X119026768Y-86290202D01*
X119074370Y-86405125D01*
X119074375Y-86405134D01*
X119143481Y-86508557D01*
X119143484Y-86508561D01*
X119231438Y-86596515D01*
X119231442Y-86596518D01*
X119334865Y-86665624D01*
X119334871Y-86665627D01*
X119334872Y-86665628D01*
X119449798Y-86713232D01*
X119571798Y-86737499D01*
X119571802Y-86737500D01*
X119571803Y-86737500D01*
X119696198Y-86737500D01*
X119696199Y-86737499D01*
X119818202Y-86713232D01*
X119933128Y-86665628D01*
X120036558Y-86596518D01*
X120124518Y-86508558D01*
X120193628Y-86405128D01*
X120241232Y-86290202D01*
X120265500Y-86168197D01*
X120265500Y-86043803D01*
X120241232Y-85921798D01*
X120193628Y-85806872D01*
X120193627Y-85806871D01*
X120193624Y-85806865D01*
X120124518Y-85703442D01*
X120124515Y-85703438D01*
X120036561Y-85615484D01*
X120036557Y-85615481D01*
X119933134Y-85546375D01*
X119933125Y-85546370D01*
X119818202Y-85498768D01*
X119818194Y-85498766D01*
X119696201Y-85474500D01*
X119696197Y-85474500D01*
X119571803Y-85474500D01*
X119571798Y-85474500D01*
X119449805Y-85498766D01*
X119449797Y-85498768D01*
X119334874Y-85546370D01*
X119334865Y-85546375D01*
X119231442Y-85615481D01*
X119231438Y-85615484D01*
X119143484Y-85703438D01*
X119143481Y-85703442D01*
X119074375Y-85806865D01*
X119074370Y-85806874D01*
X119026768Y-85921797D01*
X119026766Y-85921805D01*
X119002500Y-86043798D01*
X108966000Y-86043798D01*
X108966000Y-84574999D01*
X123274464Y-84574999D01*
X123274464Y-84575000D01*
X123294564Y-84791918D01*
X123354184Y-85001462D01*
X123451288Y-85196472D01*
X123582574Y-85370324D01*
X123706572Y-85483363D01*
X123742854Y-85543074D01*
X123741093Y-85612922D01*
X123706572Y-85666637D01*
X123582574Y-85779675D01*
X123451288Y-85953527D01*
X123354184Y-86148537D01*
X123294564Y-86358081D01*
X123274464Y-86574999D01*
X123274464Y-86575000D01*
X123294564Y-86791918D01*
X123354184Y-87001462D01*
X123451288Y-87196472D01*
X123582574Y-87370324D01*
X123706572Y-87483363D01*
X123742854Y-87543074D01*
X123741093Y-87612922D01*
X123706572Y-87666637D01*
X123582574Y-87779675D01*
X123451288Y-87953527D01*
X123354184Y-88148537D01*
X123294564Y-88358081D01*
X123274464Y-88574999D01*
X123274464Y-88575000D01*
X123294564Y-88791918D01*
X123294564Y-88791920D01*
X123294565Y-88791923D01*
X123354183Y-89001459D01*
X123451288Y-89196472D01*
X123582573Y-89370322D01*
X123743568Y-89517088D01*
X123743575Y-89517092D01*
X123743576Y-89517093D01*
X123928786Y-89631770D01*
X123928792Y-89631773D01*
X123951664Y-89640633D01*
X124131931Y-89710470D01*
X124346074Y-89750500D01*
X124346076Y-89750500D01*
X124563924Y-89750500D01*
X124563926Y-89750500D01*
X124778069Y-89710470D01*
X124981210Y-89631772D01*
X125166432Y-89517088D01*
X125327427Y-89370322D01*
X125356047Y-89332422D01*
X125412153Y-89290787D01*
X125481865Y-89286094D01*
X125543048Y-89319836D01*
X125553946Y-89332414D01*
X125582573Y-89370322D01*
X125743568Y-89517088D01*
X125743575Y-89517092D01*
X125743576Y-89517093D01*
X125928786Y-89631770D01*
X125928792Y-89631773D01*
X125951664Y-89640633D01*
X126131931Y-89710470D01*
X126346074Y-89750500D01*
X126346076Y-89750500D01*
X126563924Y-89750500D01*
X126563926Y-89750500D01*
X126778069Y-89710470D01*
X126981210Y-89631772D01*
X127166432Y-89517088D01*
X127327427Y-89370322D01*
X127458712Y-89196472D01*
X127555817Y-89001459D01*
X127615435Y-88791923D01*
X127635536Y-88575000D01*
X127615435Y-88358077D01*
X127555817Y-88148541D01*
X127458712Y-87953528D01*
X127327427Y-87779678D01*
X127203423Y-87666634D01*
X127167145Y-87606927D01*
X127168905Y-87537079D01*
X127203423Y-87483365D01*
X127327427Y-87370322D01*
X127458712Y-87196472D01*
X127555817Y-87001459D01*
X127615435Y-86791923D01*
X127635536Y-86575000D01*
X127615435Y-86358077D01*
X127555817Y-86148541D01*
X127458712Y-85953528D01*
X127327427Y-85779678D01*
X127203423Y-85666634D01*
X127167145Y-85606927D01*
X127168905Y-85537079D01*
X127203423Y-85483365D01*
X127327427Y-85370322D01*
X127458712Y-85196472D01*
X127555817Y-85001459D01*
X127615435Y-84791923D01*
X127635536Y-84575000D01*
X127615435Y-84358077D01*
X127555817Y-84148541D01*
X127458712Y-83953528D01*
X127327427Y-83779678D01*
X127203423Y-83666634D01*
X127167145Y-83606927D01*
X127168905Y-83537079D01*
X127203423Y-83483365D01*
X127327427Y-83370322D01*
X127458712Y-83196472D01*
X127555817Y-83001459D01*
X127615435Y-82791923D01*
X127635536Y-82575000D01*
X127615435Y-82358077D01*
X127555817Y-82148541D01*
X127458712Y-81953528D01*
X127327427Y-81779678D01*
X127166432Y-81632912D01*
X127166428Y-81632909D01*
X127166423Y-81632906D01*
X126981213Y-81518229D01*
X126981207Y-81518226D01*
X126896113Y-81485260D01*
X126778069Y-81439530D01*
X126563926Y-81399500D01*
X126346074Y-81399500D01*
X126131931Y-81439530D01*
X126087753Y-81456645D01*
X125928792Y-81518226D01*
X125928786Y-81518229D01*
X125743565Y-81632913D01*
X125732214Y-81643261D01*
X125669408Y-81673875D01*
X125600021Y-81665674D01*
X125549414Y-81625932D01*
X125487187Y-81542809D01*
X125372093Y-81456649D01*
X125372086Y-81456645D01*
X125237379Y-81406403D01*
X125237372Y-81406401D01*
X125177844Y-81400000D01*
X124705000Y-81400000D01*
X124705000Y-82259314D01*
X124700606Y-82254920D01*
X124609394Y-82202259D01*
X124507661Y-82175000D01*
X124402339Y-82175000D01*
X124300606Y-82202259D01*
X124209394Y-82254920D01*
X124205000Y-82259314D01*
X124205000Y-81400000D01*
X123732155Y-81400000D01*
X123672627Y-81406401D01*
X123672620Y-81406403D01*
X123537913Y-81456645D01*
X123537906Y-81456649D01*
X123422812Y-81542809D01*
X123422809Y-81542812D01*
X123336649Y-81657906D01*
X123336645Y-81657913D01*
X123286403Y-81792620D01*
X123286401Y-81792627D01*
X123280000Y-81852155D01*
X123280000Y-82325000D01*
X124139314Y-82325000D01*
X124134920Y-82329394D01*
X124082259Y-82420606D01*
X124055000Y-82522339D01*
X124055000Y-82627661D01*
X124082259Y-82729394D01*
X124134920Y-82820606D01*
X124139314Y-82825000D01*
X123280000Y-82825000D01*
X123280000Y-83297844D01*
X123286401Y-83357372D01*
X123286403Y-83357379D01*
X123336645Y-83492086D01*
X123336649Y-83492093D01*
X123422809Y-83607186D01*
X123508405Y-83671264D01*
X123550276Y-83727198D01*
X123555260Y-83796890D01*
X123533049Y-83845257D01*
X123451288Y-83953528D01*
X123354184Y-84148537D01*
X123294564Y-84358081D01*
X123274464Y-84574999D01*
X108966000Y-84574999D01*
X108966000Y-79880000D01*
X108985685Y-79812961D01*
X109038489Y-79767206D01*
X109090000Y-79756000D01*
X133480000Y-79756000D01*
X133547039Y-79775685D01*
G37*
%TD.AperFunction*%
%TD*%
M02*
