%TF.GenerationSoftware,KiCad,Pcbnew,8.0.6*%
%TF.CreationDate,2025-12-04T15:04:16-08:00*%
%TF.ProjectId,MEMSpcb,4d454d53-7063-4622-9e6b-696361645f70,rev?*%
%TF.SameCoordinates,Original*%
%TF.FileFunction,Legend,Top*%
%TF.FilePolarity,Positive*%
%FSLAX46Y46*%
G04 Gerber Fmt 4.6, Leading zero omitted, Abs format (unit mm)*
G04 Created by KiCad (PCBNEW 8.0.6) date 2025-12-04 15:04:16*
%MOMM*%
%LPD*%
G01*
G04 APERTURE LIST*
G04 Aperture macros list*
%AMRoundRect*
0 Rectangle with rounded corners*
0 $1 Rounding radius*
0 $2 $3 $4 $5 $6 $7 $8 $9 X,Y pos of 4 corners*
0 Add a 4 corners polygon primitive as box body*
4,1,4,$2,$3,$4,$5,$6,$7,$8,$9,$2,$3,0*
0 Add four circle primitives for the rounded corners*
1,1,$1+$1,$2,$3*
1,1,$1+$1,$4,$5*
1,1,$1+$1,$6,$7*
1,1,$1+$1,$8,$9*
0 Add four rect primitives between the rounded corners*
20,1,$1+$1,$2,$3,$4,$5,0*
20,1,$1+$1,$4,$5,$6,$7,0*
20,1,$1+$1,$6,$7,$8,$9,0*
20,1,$1+$1,$8,$9,$2,$3,0*%
G04 Aperture macros list end*
%ADD10C,0.150000*%
%ADD11C,0.120000*%
%ADD12C,0.127000*%
%ADD13C,0.200000*%
%ADD14C,0.010000*%
%ADD15RoundRect,0.250001X-0.924999X0.499999X-0.924999X-0.499999X0.924999X-0.499999X0.924999X0.499999X0*%
%ADD16C,0.001000*%
%ADD17R,1.350000X1.350000*%
%ADD18O,1.350000X1.350000*%
%ADD19RoundRect,0.200000X0.200000X0.275000X-0.200000X0.275000X-0.200000X-0.275000X0.200000X-0.275000X0*%
G04 APERTURE END LIST*
D10*
X126527160Y-94056200D02*
X126670017Y-94103819D01*
X126670017Y-94103819D02*
X126908112Y-94103819D01*
X126908112Y-94103819D02*
X127003350Y-94056200D01*
X127003350Y-94056200D02*
X127050969Y-94008580D01*
X127050969Y-94008580D02*
X127098588Y-93913342D01*
X127098588Y-93913342D02*
X127098588Y-93818104D01*
X127098588Y-93818104D02*
X127050969Y-93722866D01*
X127050969Y-93722866D02*
X127003350Y-93675247D01*
X127003350Y-93675247D02*
X126908112Y-93627628D01*
X126908112Y-93627628D02*
X126717636Y-93580009D01*
X126717636Y-93580009D02*
X126622398Y-93532390D01*
X126622398Y-93532390D02*
X126574779Y-93484771D01*
X126574779Y-93484771D02*
X126527160Y-93389533D01*
X126527160Y-93389533D02*
X126527160Y-93294295D01*
X126527160Y-93294295D02*
X126574779Y-93199057D01*
X126574779Y-93199057D02*
X126622398Y-93151438D01*
X126622398Y-93151438D02*
X126717636Y-93103819D01*
X126717636Y-93103819D02*
X126955731Y-93103819D01*
X126955731Y-93103819D02*
X127098588Y-93151438D01*
X127479541Y-93818104D02*
X127955731Y-93818104D01*
X127384303Y-94103819D02*
X127717636Y-93103819D01*
X127717636Y-93103819D02*
X128050969Y-94103819D01*
X128908112Y-93151438D02*
X128812874Y-93103819D01*
X128812874Y-93103819D02*
X128670017Y-93103819D01*
X128670017Y-93103819D02*
X128527160Y-93151438D01*
X128527160Y-93151438D02*
X128431922Y-93246676D01*
X128431922Y-93246676D02*
X128384303Y-93341914D01*
X128384303Y-93341914D02*
X128336684Y-93532390D01*
X128336684Y-93532390D02*
X128336684Y-93675247D01*
X128336684Y-93675247D02*
X128384303Y-93865723D01*
X128384303Y-93865723D02*
X128431922Y-93960961D01*
X128431922Y-93960961D02*
X128527160Y-94056200D01*
X128527160Y-94056200D02*
X128670017Y-94103819D01*
X128670017Y-94103819D02*
X128765255Y-94103819D01*
X128765255Y-94103819D02*
X128908112Y-94056200D01*
X128908112Y-94056200D02*
X128955731Y-94008580D01*
X128955731Y-94008580D02*
X128955731Y-93675247D01*
X128955731Y-93675247D02*
X128765255Y-93675247D01*
X129384303Y-93580009D02*
X129717636Y-93580009D01*
X129860493Y-94103819D02*
X129384303Y-94103819D01*
X129384303Y-94103819D02*
X129384303Y-93103819D01*
X129384303Y-93103819D02*
X129860493Y-93103819D01*
X131050970Y-94103819D02*
X131050970Y-93103819D01*
X131050970Y-93103819D02*
X131384303Y-93818104D01*
X131384303Y-93818104D02*
X131717636Y-93103819D01*
X131717636Y-93103819D02*
X131717636Y-94103819D01*
X132193827Y-94103819D02*
X132193827Y-93103819D01*
X133241445Y-94008580D02*
X133193826Y-94056200D01*
X133193826Y-94056200D02*
X133050969Y-94103819D01*
X133050969Y-94103819D02*
X132955731Y-94103819D01*
X132955731Y-94103819D02*
X132812874Y-94056200D01*
X132812874Y-94056200D02*
X132717636Y-93960961D01*
X132717636Y-93960961D02*
X132670017Y-93865723D01*
X132670017Y-93865723D02*
X132622398Y-93675247D01*
X132622398Y-93675247D02*
X132622398Y-93532390D01*
X132622398Y-93532390D02*
X132670017Y-93341914D01*
X132670017Y-93341914D02*
X132717636Y-93246676D01*
X132717636Y-93246676D02*
X132812874Y-93151438D01*
X132812874Y-93151438D02*
X132955731Y-93103819D01*
X132955731Y-93103819D02*
X133050969Y-93103819D01*
X133050969Y-93103819D02*
X133193826Y-93151438D01*
X133193826Y-93151438D02*
X133241445Y-93199057D01*
D11*
%TO.C,C1*%
X113806000Y-85757000D02*
X113806000Y-90142000D01*
X116826000Y-85757000D02*
X113806000Y-85757000D01*
X116826000Y-90142000D02*
X116826000Y-85757000D01*
D12*
%TO.C,MK1*%
X118309000Y-85431000D02*
X118309000Y-86401000D01*
X120959000Y-85431000D02*
X120959000Y-86401000D01*
D13*
X117884000Y-84034000D02*
G75*
G02*
X117684000Y-84034000I-100000J0D01*
G01*
X117684000Y-84034000D02*
G75*
G02*
X117884000Y-84034000I100000J0D01*
G01*
D11*
%TO.C,J2*%
X123395000Y-81515000D02*
X124455000Y-81515000D01*
X123395000Y-82575000D02*
X123395000Y-81515000D01*
X123395000Y-83575000D02*
X123395000Y-89635000D01*
X123395000Y-83575000D02*
X125455000Y-83575000D01*
X123395000Y-89635000D02*
X127515000Y-89635000D01*
X125455000Y-81515000D02*
X127515000Y-81515000D01*
X125455000Y-83575000D02*
X125455000Y-81515000D01*
X127515000Y-81515000D02*
X127515000Y-89635000D01*
%TO.C,R1*%
X130237258Y-83977500D02*
X129762742Y-83977500D01*
X130237258Y-85022500D02*
X129762742Y-85022500D01*
%TD*%
%LPC*%
D14*
%TO.C,MK1*%
X119084000Y-84345000D02*
X118384000Y-84345000D01*
X118384000Y-83723000D01*
X119084000Y-83723000D01*
X119084000Y-84345000D01*
G36*
X119084000Y-84345000D02*
G01*
X118384000Y-84345000D01*
X118384000Y-83723000D01*
X119084000Y-83723000D01*
X119084000Y-84345000D01*
G37*
X119084000Y-85165000D02*
X118384000Y-85165000D01*
X118384000Y-84543000D01*
X119084000Y-84543000D01*
X119084000Y-85165000D01*
G36*
X119084000Y-85165000D02*
G01*
X118384000Y-85165000D01*
X118384000Y-84543000D01*
X119084000Y-84543000D01*
X119084000Y-85165000D01*
G37*
X118784000Y-87071000D02*
X118384000Y-87071000D01*
X118384000Y-86671000D01*
X118784000Y-86671000D01*
X118784000Y-87071000D01*
G36*
X118784000Y-87071000D02*
G01*
X118384000Y-87071000D01*
X118384000Y-86671000D01*
X118784000Y-86671000D01*
X118784000Y-87071000D01*
G37*
X119984000Y-84345000D02*
X119284000Y-84345000D01*
X119284000Y-83723000D01*
X119984000Y-83723000D01*
X119984000Y-84345000D01*
G36*
X119984000Y-84345000D02*
G01*
X119284000Y-84345000D01*
X119284000Y-83723000D01*
X119984000Y-83723000D01*
X119984000Y-84345000D01*
G37*
X120884000Y-84345000D02*
X120184000Y-84345000D01*
X120184000Y-83723000D01*
X120884000Y-83723000D01*
X120884000Y-84345000D01*
G36*
X120884000Y-84345000D02*
G01*
X120184000Y-84345000D01*
X120184000Y-83723000D01*
X120884000Y-83723000D01*
X120884000Y-84345000D01*
G37*
X120884000Y-85165000D02*
X120184000Y-85165000D01*
X120184000Y-84543000D01*
X120884000Y-84543000D01*
X120884000Y-85165000D01*
G36*
X120884000Y-85165000D02*
G01*
X120184000Y-85165000D01*
X120184000Y-84543000D01*
X120884000Y-84543000D01*
X120884000Y-85165000D01*
G37*
X120884000Y-87071000D02*
X120484000Y-87071000D01*
X120484000Y-86671000D01*
X120884000Y-86671000D01*
X120884000Y-87071000D01*
G36*
X120884000Y-87071000D02*
G01*
X120484000Y-87071000D01*
X120484000Y-86671000D01*
X120884000Y-86671000D01*
X120884000Y-87071000D01*
G37*
%TD*%
D15*
%TO.C,C1*%
X115316000Y-86767000D03*
X115316000Y-90017000D03*
%TD*%
D16*
%TO.C,MK1*%
X119634000Y-86106000D03*
%TD*%
D17*
%TO.C,J2*%
X124455000Y-82575000D03*
D18*
X126455000Y-82575000D03*
X124455000Y-84575000D03*
X126455000Y-84575000D03*
X124455000Y-86575000D03*
X126455000Y-86575000D03*
X124455000Y-88575000D03*
X126455000Y-88575000D03*
%TD*%
D19*
%TO.C,R1*%
X130825000Y-84500000D03*
X129175000Y-84500000D03*
%TD*%
%LPD*%
M02*
