%TF.GenerationSoftware,KiCad,Pcbnew,7.0.8*%
%TF.CreationDate,2026-02-12T14:03:13-08:00*%
%TF.ProjectId,MEMSpcb,4d454d53-7063-4622-9e6b-696361645f70,rev?*%
%TF.SameCoordinates,Original*%
%TF.FileFunction,Copper,L4,Bot*%
%TF.FilePolarity,Positive*%
%FSLAX46Y46*%
G04 Gerber Fmt 4.6, Leading zero omitted, Abs format (unit mm)*
G04 Created by KiCad (PCBNEW 7.0.8) date 2026-02-12 14:03:13*
%MOMM*%
%LPD*%
G01*
G04 APERTURE LIST*
%TA.AperFunction,ComponentPad*%
%ADD10R,1.700000X1.700000*%
%TD*%
%TA.AperFunction,ComponentPad*%
%ADD11O,1.700000X1.700000*%
%TD*%
%TA.AperFunction,ViaPad*%
%ADD12C,0.800000*%
%TD*%
G04 APERTURE END LIST*
D10*
%TO.P,J2,1,Pin_1*%
%TO.N,+3.3V*%
X126741000Y-82052000D03*
D11*
%TO.P,J2,2,Pin_2*%
%TO.N,/SCK*%
X129281000Y-82052000D03*
%TO.P,J2,3,Pin_3*%
%TO.N,GND*%
X126741000Y-84592000D03*
%TO.P,J2,4,Pin_4*%
X129281000Y-84592000D03*
%TO.P,J2,5,Pin_5*%
%TO.N,/WS*%
X126741000Y-87132000D03*
%TO.P,J2,6,Pin_6*%
%TO.N,/THSEL*%
X129281000Y-87132000D03*
%TO.P,J2,7,Pin_7*%
%TO.N,/WAKE*%
X126741000Y-89672000D03*
%TO.P,J2,8,Pin_8*%
%TO.N,/SD*%
X129281000Y-89672000D03*
%TD*%
D12*
%TO.N,+3.3V*%
X115824000Y-84836000D03*
X121920000Y-82296000D03*
%TD*%
%TA.AperFunction,Conductor*%
%TO.N,+3.3V*%
G36*
X133546539Y-79776185D02*
G01*
X133592294Y-79828989D01*
X133603500Y-79880500D01*
X133603500Y-94363500D01*
X133583815Y-94430539D01*
X133531011Y-94476294D01*
X133479500Y-94487500D01*
X109090500Y-94487500D01*
X109023461Y-94467815D01*
X108977706Y-94415011D01*
X108966500Y-94363500D01*
X108966500Y-89672000D01*
X125385341Y-89672000D01*
X125405936Y-89907403D01*
X125405938Y-89907413D01*
X125467094Y-90135655D01*
X125467096Y-90135659D01*
X125467097Y-90135663D01*
X125471000Y-90144032D01*
X125566965Y-90349830D01*
X125566967Y-90349834D01*
X125675281Y-90504521D01*
X125702505Y-90543401D01*
X125869599Y-90710495D01*
X125966384Y-90778265D01*
X126063165Y-90846032D01*
X126063167Y-90846033D01*
X126063170Y-90846035D01*
X126277337Y-90945903D01*
X126505592Y-91007063D01*
X126693918Y-91023539D01*
X126740999Y-91027659D01*
X126741000Y-91027659D01*
X126741001Y-91027659D01*
X126780234Y-91024226D01*
X126976408Y-91007063D01*
X127204663Y-90945903D01*
X127418830Y-90846035D01*
X127612401Y-90710495D01*
X127779495Y-90543401D01*
X127909425Y-90357842D01*
X127964002Y-90314217D01*
X128033500Y-90307023D01*
X128095855Y-90338546D01*
X128112575Y-90357842D01*
X128242500Y-90543395D01*
X128242505Y-90543401D01*
X128409599Y-90710495D01*
X128506384Y-90778265D01*
X128603165Y-90846032D01*
X128603167Y-90846033D01*
X128603170Y-90846035D01*
X128817337Y-90945903D01*
X129045592Y-91007063D01*
X129233918Y-91023539D01*
X129280999Y-91027659D01*
X129281000Y-91027659D01*
X129281001Y-91027659D01*
X129320234Y-91024226D01*
X129516408Y-91007063D01*
X129744663Y-90945903D01*
X129958830Y-90846035D01*
X130152401Y-90710495D01*
X130319495Y-90543401D01*
X130455035Y-90349830D01*
X130554903Y-90135663D01*
X130616063Y-89907408D01*
X130636659Y-89672000D01*
X130616063Y-89436592D01*
X130554903Y-89208337D01*
X130455035Y-88994171D01*
X130449425Y-88986158D01*
X130319494Y-88800597D01*
X130152402Y-88633506D01*
X130152396Y-88633501D01*
X129966842Y-88503575D01*
X129923217Y-88448998D01*
X129916023Y-88379500D01*
X129947546Y-88317145D01*
X129966842Y-88300425D01*
X129989026Y-88284891D01*
X130152401Y-88170495D01*
X130319495Y-88003401D01*
X130455035Y-87809830D01*
X130554903Y-87595663D01*
X130616063Y-87367408D01*
X130636659Y-87132000D01*
X130616063Y-86896592D01*
X130554903Y-86668337D01*
X130455035Y-86454171D01*
X130449425Y-86446158D01*
X130319494Y-86260597D01*
X130152402Y-86093506D01*
X130152396Y-86093501D01*
X129966842Y-85963575D01*
X129923217Y-85908998D01*
X129916023Y-85839500D01*
X129947546Y-85777145D01*
X129966842Y-85760425D01*
X130052756Y-85700267D01*
X130152401Y-85630495D01*
X130319495Y-85463401D01*
X130455035Y-85269830D01*
X130554903Y-85055663D01*
X130616063Y-84827408D01*
X130636659Y-84592000D01*
X130616063Y-84356592D01*
X130554903Y-84128337D01*
X130455035Y-83914171D01*
X130449425Y-83906158D01*
X130319494Y-83720597D01*
X130152402Y-83553506D01*
X130152396Y-83553501D01*
X129966842Y-83423575D01*
X129923217Y-83368998D01*
X129916023Y-83299500D01*
X129947546Y-83237145D01*
X129966842Y-83220425D01*
X130075865Y-83144086D01*
X130152401Y-83090495D01*
X130319495Y-82923401D01*
X130455035Y-82729830D01*
X130554903Y-82515663D01*
X130616063Y-82287408D01*
X130636659Y-82052000D01*
X130616063Y-81816592D01*
X130554903Y-81588337D01*
X130455035Y-81374171D01*
X130319495Y-81180599D01*
X130319494Y-81180597D01*
X130152402Y-81013506D01*
X130152395Y-81013501D01*
X129958834Y-80877967D01*
X129958830Y-80877965D01*
X129887727Y-80844809D01*
X129744663Y-80778097D01*
X129744659Y-80778096D01*
X129744655Y-80778094D01*
X129516413Y-80716938D01*
X129516403Y-80716936D01*
X129281001Y-80696341D01*
X129280999Y-80696341D01*
X129045596Y-80716936D01*
X129045586Y-80716938D01*
X128817344Y-80778094D01*
X128817335Y-80778098D01*
X128603171Y-80877964D01*
X128603169Y-80877965D01*
X128409600Y-81013503D01*
X128287284Y-81135819D01*
X128225961Y-81169303D01*
X128156269Y-81164319D01*
X128100336Y-81122447D01*
X128083421Y-81091470D01*
X128034354Y-80959913D01*
X128034350Y-80959906D01*
X127948190Y-80844812D01*
X127948187Y-80844809D01*
X127833093Y-80758649D01*
X127833086Y-80758645D01*
X127698379Y-80708403D01*
X127698372Y-80708401D01*
X127638844Y-80702000D01*
X126991000Y-80702000D01*
X126991000Y-81616498D01*
X126883315Y-81567320D01*
X126776763Y-81552000D01*
X126705237Y-81552000D01*
X126598685Y-81567320D01*
X126491000Y-81616498D01*
X126491000Y-80702000D01*
X125843155Y-80702000D01*
X125783627Y-80708401D01*
X125783620Y-80708403D01*
X125648913Y-80758645D01*
X125648906Y-80758649D01*
X125533812Y-80844809D01*
X125533809Y-80844812D01*
X125447649Y-80959906D01*
X125447645Y-80959913D01*
X125397403Y-81094620D01*
X125397401Y-81094627D01*
X125391000Y-81154155D01*
X125391000Y-81802000D01*
X126307314Y-81802000D01*
X126281507Y-81842156D01*
X126241000Y-81980111D01*
X126241000Y-82123889D01*
X126281507Y-82261844D01*
X126307314Y-82302000D01*
X125391000Y-82302000D01*
X125391000Y-82949844D01*
X125397401Y-83009372D01*
X125397403Y-83009379D01*
X125447645Y-83144086D01*
X125447649Y-83144093D01*
X125533809Y-83259187D01*
X125533812Y-83259190D01*
X125648906Y-83345350D01*
X125648913Y-83345354D01*
X125780470Y-83394421D01*
X125836403Y-83436292D01*
X125860821Y-83501756D01*
X125845970Y-83570029D01*
X125824819Y-83598284D01*
X125702503Y-83720600D01*
X125566965Y-83914169D01*
X125566964Y-83914171D01*
X125467098Y-84128335D01*
X125467094Y-84128344D01*
X125405938Y-84356586D01*
X125405936Y-84356596D01*
X125385341Y-84591999D01*
X125385341Y-84592000D01*
X125405936Y-84827403D01*
X125405938Y-84827413D01*
X125467094Y-85055655D01*
X125467096Y-85055659D01*
X125467097Y-85055663D01*
X125471000Y-85064032D01*
X125566965Y-85269830D01*
X125566967Y-85269834D01*
X125675281Y-85424521D01*
X125702501Y-85463396D01*
X125702506Y-85463402D01*
X125869597Y-85630493D01*
X125869603Y-85630498D01*
X126055158Y-85760425D01*
X126098783Y-85815002D01*
X126105977Y-85884500D01*
X126074454Y-85946855D01*
X126055158Y-85963575D01*
X125869597Y-86093505D01*
X125702505Y-86260597D01*
X125566965Y-86454169D01*
X125566964Y-86454171D01*
X125467098Y-86668335D01*
X125467094Y-86668344D01*
X125405938Y-86896586D01*
X125405936Y-86896596D01*
X125385341Y-87131999D01*
X125385341Y-87132000D01*
X125405936Y-87367403D01*
X125405938Y-87367413D01*
X125467094Y-87595655D01*
X125467096Y-87595659D01*
X125467097Y-87595663D01*
X125471000Y-87604032D01*
X125566965Y-87809830D01*
X125566967Y-87809834D01*
X125675281Y-87964521D01*
X125702501Y-88003396D01*
X125702506Y-88003402D01*
X125869597Y-88170493D01*
X125869603Y-88170498D01*
X126055158Y-88300425D01*
X126098783Y-88355002D01*
X126105977Y-88424500D01*
X126074454Y-88486855D01*
X126055158Y-88503575D01*
X125869597Y-88633505D01*
X125702505Y-88800597D01*
X125566965Y-88994169D01*
X125566964Y-88994171D01*
X125467098Y-89208335D01*
X125467094Y-89208344D01*
X125405938Y-89436586D01*
X125405936Y-89436596D01*
X125385341Y-89671999D01*
X125385341Y-89672000D01*
X108966500Y-89672000D01*
X108966500Y-86066033D01*
X118998737Y-86066033D01*
X119008756Y-86225273D01*
X119058061Y-86377020D01*
X119143553Y-86511732D01*
X119259864Y-86620955D01*
X119259868Y-86620958D01*
X119399678Y-86697818D01*
X119399682Y-86697820D01*
X119554223Y-86737500D01*
X119554226Y-86737500D01*
X119673728Y-86737500D01*
X119673730Y-86737500D01*
X119673735Y-86737499D01*
X119673739Y-86737499D01*
X119686590Y-86735875D01*
X119792296Y-86722522D01*
X119940645Y-86663786D01*
X120069727Y-86570002D01*
X120171431Y-86447064D01*
X120239366Y-86302695D01*
X120269263Y-86145967D01*
X120259244Y-85986728D01*
X120209940Y-85834983D01*
X120209938Y-85834980D01*
X120209938Y-85834979D01*
X120124446Y-85700267D01*
X120008135Y-85591044D01*
X120008131Y-85591041D01*
X119868321Y-85514181D01*
X119868313Y-85514178D01*
X119713779Y-85474500D01*
X119713777Y-85474500D01*
X119594270Y-85474500D01*
X119594260Y-85474500D01*
X119475704Y-85489478D01*
X119475702Y-85489478D01*
X119327356Y-85548213D01*
X119327351Y-85548216D01*
X119268403Y-85591045D01*
X119214106Y-85630495D01*
X119198272Y-85641999D01*
X119096567Y-85764938D01*
X119028634Y-85909304D01*
X119028634Y-85909305D01*
X118998737Y-86066030D01*
X118998737Y-86066033D01*
X108966500Y-86066033D01*
X108966500Y-79880500D01*
X108986185Y-79813461D01*
X109038989Y-79767706D01*
X109090500Y-79756500D01*
X133479500Y-79756500D01*
X133546539Y-79776185D01*
G37*
%TD.AperFunction*%
%TD*%
M02*
