%TF.GenerationSoftware,KiCad,Pcbnew,7.0.8*%
%TF.CreationDate,2026-02-12T14:03:13-08:00*%
%TF.ProjectId,MEMSpcb,4d454d53-7063-4622-9e6b-696361645f70,rev?*%
%TF.SameCoordinates,Original*%
%TF.FileFunction,Legend,Top*%
%TF.FilePolarity,Positive*%
%FSLAX46Y46*%
G04 Gerber Fmt 4.6, Leading zero omitted, Abs format (unit mm)*
G04 Created by KiCad (PCBNEW 7.0.8) date 2026-02-12 14:03:13*
%MOMM*%
%LPD*%
G01*
G04 APERTURE LIST*
%ADD10C,0.150000*%
%ADD11C,0.120000*%
%ADD12C,0.127000*%
%ADD13C,0.200000*%
G04 APERTURE END LIST*
D10*
X126527160Y-94056200D02*
X126670017Y-94103819D01*
X126670017Y-94103819D02*
X126908112Y-94103819D01*
X126908112Y-94103819D02*
X127003350Y-94056200D01*
X127003350Y-94056200D02*
X127050969Y-94008580D01*
X127050969Y-94008580D02*
X127098588Y-93913342D01*
X127098588Y-93913342D02*
X127098588Y-93818104D01*
X127098588Y-93818104D02*
X127050969Y-93722866D01*
X127050969Y-93722866D02*
X127003350Y-93675247D01*
X127003350Y-93675247D02*
X126908112Y-93627628D01*
X126908112Y-93627628D02*
X126717636Y-93580009D01*
X126717636Y-93580009D02*
X126622398Y-93532390D01*
X126622398Y-93532390D02*
X126574779Y-93484771D01*
X126574779Y-93484771D02*
X126527160Y-93389533D01*
X126527160Y-93389533D02*
X126527160Y-93294295D01*
X126527160Y-93294295D02*
X126574779Y-93199057D01*
X126574779Y-93199057D02*
X126622398Y-93151438D01*
X126622398Y-93151438D02*
X126717636Y-93103819D01*
X126717636Y-93103819D02*
X126955731Y-93103819D01*
X126955731Y-93103819D02*
X127098588Y-93151438D01*
X127479541Y-93818104D02*
X127955731Y-93818104D01*
X127384303Y-94103819D02*
X127717636Y-93103819D01*
X127717636Y-93103819D02*
X128050969Y-94103819D01*
X128908112Y-93151438D02*
X128812874Y-93103819D01*
X128812874Y-93103819D02*
X128670017Y-93103819D01*
X128670017Y-93103819D02*
X128527160Y-93151438D01*
X128527160Y-93151438D02*
X128431922Y-93246676D01*
X128431922Y-93246676D02*
X128384303Y-93341914D01*
X128384303Y-93341914D02*
X128336684Y-93532390D01*
X128336684Y-93532390D02*
X128336684Y-93675247D01*
X128336684Y-93675247D02*
X128384303Y-93865723D01*
X128384303Y-93865723D02*
X128431922Y-93960961D01*
X128431922Y-93960961D02*
X128527160Y-94056200D01*
X128527160Y-94056200D02*
X128670017Y-94103819D01*
X128670017Y-94103819D02*
X128765255Y-94103819D01*
X128765255Y-94103819D02*
X128908112Y-94056200D01*
X128908112Y-94056200D02*
X128955731Y-94008580D01*
X128955731Y-94008580D02*
X128955731Y-93675247D01*
X128955731Y-93675247D02*
X128765255Y-93675247D01*
X129384303Y-93580009D02*
X129717636Y-93580009D01*
X129860493Y-94103819D02*
X129384303Y-94103819D01*
X129384303Y-94103819D02*
X129384303Y-93103819D01*
X129384303Y-93103819D02*
X129860493Y-93103819D01*
X131050970Y-94103819D02*
X131050970Y-93103819D01*
X131050970Y-93103819D02*
X131384303Y-93818104D01*
X131384303Y-93818104D02*
X131717636Y-93103819D01*
X131717636Y-93103819D02*
X131717636Y-94103819D01*
X132193827Y-94103819D02*
X132193827Y-93103819D01*
X133241445Y-94008580D02*
X133193826Y-94056200D01*
X133193826Y-94056200D02*
X133050969Y-94103819D01*
X133050969Y-94103819D02*
X132955731Y-94103819D01*
X132955731Y-94103819D02*
X132812874Y-94056200D01*
X132812874Y-94056200D02*
X132717636Y-93960961D01*
X132717636Y-93960961D02*
X132670017Y-93865723D01*
X132670017Y-93865723D02*
X132622398Y-93675247D01*
X132622398Y-93675247D02*
X132622398Y-93532390D01*
X132622398Y-93532390D02*
X132670017Y-93341914D01*
X132670017Y-93341914D02*
X132717636Y-93246676D01*
X132717636Y-93246676D02*
X132812874Y-93151438D01*
X132812874Y-93151438D02*
X132955731Y-93103819D01*
X132955731Y-93103819D02*
X133050969Y-93103819D01*
X133050969Y-93103819D02*
X133193826Y-93151438D01*
X133193826Y-93151438D02*
X133241445Y-93199057D01*
D11*
%TO.C,C1*%
X116826000Y-85757000D02*
X113806000Y-85757000D01*
X113806000Y-85757000D02*
X113806000Y-90142000D01*
X116826000Y-90142000D02*
X116826000Y-85757000D01*
D12*
%TO.C,MK1*%
X118309000Y-85431000D02*
X118309000Y-86401000D01*
X120959000Y-85431000D02*
X120959000Y-86401000D01*
D13*
X117884000Y-84034000D02*
G75*
G03*
X117884000Y-84034000I-100000J0D01*
G01*
D11*
%TO.C,J2*%
X125411000Y-80722000D02*
X126741000Y-80722000D01*
X125411000Y-82052000D02*
X125411000Y-80722000D01*
X125411000Y-83322000D02*
X125411000Y-91002000D01*
X125411000Y-83322000D02*
X128011000Y-83322000D01*
X125411000Y-91002000D02*
X130611000Y-91002000D01*
X128011000Y-80722000D02*
X130611000Y-80722000D01*
X128011000Y-83322000D02*
X128011000Y-80722000D01*
X130611000Y-80722000D02*
X130611000Y-91002000D01*
%TO.C,R1*%
X132501621Y-86486000D02*
X132166379Y-86486000D01*
X132501621Y-85726000D02*
X132166379Y-85726000D01*
%TD*%
M02*
