%TF.GenerationSoftware,KiCad,Pcbnew,7.0.8*%
%TF.CreationDate,2026-02-12T14:03:13-08:00*%
%TF.ProjectId,MEMSpcb,4d454d53-7063-4622-9e6b-696361645f70,rev?*%
%TF.SameCoordinates,Original*%
%TF.FileFunction,Copper,L1,Top*%
%TF.FilePolarity,Positive*%
%FSLAX46Y46*%
G04 Gerber Fmt 4.6, Leading zero omitted, Abs format (unit mm)*
G04 Created by KiCad (PCBNEW 7.0.8) date 2026-02-12 14:03:13*
%MOMM*%
%LPD*%
G01*
G04 APERTURE LIST*
G04 Aperture macros list*
%AMRoundRect*
0 Rectangle with rounded corners*
0 $1 Rounding radius*
0 $2 $3 $4 $5 $6 $7 $8 $9 X,Y pos of 4 corners*
0 Add a 4 corners polygon primitive as box body*
4,1,4,$2,$3,$4,$5,$6,$7,$8,$9,$2,$3,0*
0 Add four circle primitives for the rounded corners*
1,1,$1+$1,$2,$3*
1,1,$1+$1,$4,$5*
1,1,$1+$1,$6,$7*
1,1,$1+$1,$8,$9*
0 Add four rect primitives between the rounded corners*
20,1,$1+$1,$2,$3,$4,$5,0*
20,1,$1+$1,$4,$5,$6,$7,0*
20,1,$1+$1,$6,$7,$8,$9,0*
20,1,$1+$1,$8,$9,$2,$3,0*%
%AMFreePoly0*
4,1,153,0.085294,0.150491,0.085520,0.150381,0.085765,0.150441,0.169765,0.137441,0.170010,0.137291,0.170296,0.137329,0.252296,0.115329,0.252531,0.115148,0.252826,0.115154,0.331827,0.084154,0.331998,0.083988,0.332236,0.083972,0.408236,0.045972,0.408434,0.045743,0.408733,0.045687,0.480733,-0.001313,0.480879,-0.001527,0.481131,-0.001601,0.547130,-0.054601,0.547268,-0.054853,
0.547536,-0.054964,0.607536,-0.114965,0.607645,-0.115230,0.607899,-0.115369,0.660898,-0.181369,0.660971,-0.181619,0.661187,-0.181767,0.708187,-0.253767,0.708243,-0.254065,0.708472,-0.254264,0.746472,-0.330264,0.746488,-0.330502,0.746654,-0.330674,0.777655,-0.409674,0.777649,-0.409970,0.777829,-0.410204,0.799829,-0.492204,0.799791,-0.492489,0.799941,-0.492735,0.812941,-0.576735,
0.812881,-0.576979,0.812991,-0.577206,0.817991,-0.662206,0.817939,-0.662354,0.818000,-0.662500,0.817320,-0.664142,0.816738,-0.665822,0.816596,-0.665890,0.816536,-0.666036,0.814891,-0.666717,0.813294,-0.667491,0.813145,-0.667439,0.813000,-0.667500,0.512000,-0.667500,0.510312,-0.666801,0.508597,-0.666164,0.508555,-0.666073,0.508464,-0.666036,0.507766,-0.664351,0.507003,-0.662685,
0.505014,-0.609006,0.496114,-0.556591,0.482239,-0.506049,0.463414,-0.456509,0.439649,-0.408979,0.410940,-0.364431,0.377279,-0.322850,0.339644,-0.285216,0.298068,-0.251559,0.253516,-0.222848,0.205990,-0.199085,0.156448,-0.180259,0.105908,-0.166385,0.053493,-0.157485,0.000000,-0.155503,-0.053493,-0.157485,-0.105908,-0.166385,-0.156450,-0.180260,-0.205990,-0.199085,-0.253520,-0.222850,
-0.298068,-0.251559,-0.339649,-0.285220,-0.377283,-0.322855,-0.410940,-0.364431,-0.439652,-0.408984,-0.463414,-0.456509,-0.482240,-0.506051,-0.496114,-0.556591,-0.505014,-0.609006,-0.507003,-0.662685,-0.507766,-0.664351,-0.508464,-0.666036,-0.508555,-0.666073,-0.508597,-0.666164,-0.510312,-0.666801,-0.512000,-0.667500,-0.813000,-0.667500,-0.813145,-0.667439,-0.813294,-0.667491,-0.814891,-0.666717,
-0.816536,-0.666036,-0.816596,-0.665890,-0.816738,-0.665822,-0.817320,-0.664142,-0.818000,-0.662500,-0.817939,-0.662354,-0.817991,-0.662206,-0.812991,-0.577206,-0.812881,-0.576979,-0.812941,-0.576735,-0.799941,-0.492735,-0.799791,-0.492489,-0.799829,-0.492204,-0.777829,-0.410204,-0.777648,-0.409968,-0.777654,-0.409674,-0.746654,-0.330673,-0.746488,-0.330501,-0.746472,-0.330264,-0.708472,-0.254264,
-0.708243,-0.254065,-0.708187,-0.253767,-0.661187,-0.181767,-0.660972,-0.181620,-0.660899,-0.181369,-0.607899,-0.115370,-0.607646,-0.115231,-0.607536,-0.114964,-0.547535,-0.054964,-0.547269,-0.054854,-0.547131,-0.054601,-0.481131,-0.001602,-0.480880,-0.001528,-0.480733,-0.001313,-0.408733,0.045687,-0.408434,0.045743,-0.408236,0.045972,-0.332236,0.083972,-0.331997,0.083988,-0.331826,0.084154,
-0.252826,0.115155,-0.252529,0.115149,-0.252296,0.115329,-0.170296,0.137329,-0.170010,0.137291,-0.169765,0.137441,-0.085765,0.150441,-0.085520,0.150381,-0.085294,0.150491,-0.000294,0.155491,0.000000,0.155389,0.000294,0.155491,0.085294,0.150491,0.085294,0.150491,$1*%
%AMFreePoly1*
4,1,153,-0.510312,0.666801,-0.508597,0.666164,-0.508555,0.666073,-0.508464,0.666036,-0.507766,0.664351,-0.507003,0.662685,-0.505014,0.609006,-0.496114,0.556591,-0.482240,0.506051,-0.463414,0.456509,-0.439652,0.408984,-0.410940,0.364431,-0.377283,0.322855,-0.339649,0.285220,-0.298068,0.251559,-0.253520,0.222850,-0.205990,0.199085,-0.156450,0.180260,-0.105908,0.166385,-0.053493,0.157485,
0.000000,0.155503,0.053493,0.157485,0.105908,0.166385,0.156448,0.180259,0.205990,0.199085,0.253516,0.222848,0.298068,0.251559,0.339644,0.285216,0.377279,0.322850,0.410940,0.364431,0.439649,0.408979,0.463414,0.456509,0.482239,0.506049,0.496114,0.556591,0.505014,0.609006,0.507003,0.662685,0.507766,0.664351,0.508464,0.666036,0.508555,0.666073,0.508597,0.666164,
0.510312,0.666801,0.512000,0.667500,0.813000,0.667500,0.813145,0.667439,0.813294,0.667491,0.814891,0.666717,0.816536,0.666036,0.816596,0.665890,0.816738,0.665822,0.817320,0.664142,0.818000,0.662500,0.817939,0.662354,0.817991,0.662206,0.812991,0.577206,0.812881,0.576979,0.812941,0.576735,0.799941,0.492735,0.799791,0.492489,0.799829,0.492204,0.777829,0.410204,
0.777649,0.409970,0.777655,0.409674,0.746654,0.330674,0.746488,0.330502,0.746472,0.330264,0.708472,0.254264,0.708243,0.254065,0.708187,0.253767,0.661187,0.181767,0.660971,0.181619,0.660898,0.181369,0.607899,0.115369,0.607645,0.115230,0.607536,0.114965,0.547536,0.054964,0.547268,0.054853,0.547130,0.054601,0.481131,0.001601,0.480879,0.001527,0.480733,0.001313,
0.408733,-0.045687,0.408434,-0.045743,0.408236,-0.045972,0.332236,-0.083972,0.331998,-0.083988,0.331827,-0.084154,0.252826,-0.115154,0.252531,-0.115148,0.252296,-0.115329,0.170296,-0.137329,0.170010,-0.137291,0.169765,-0.137441,0.085765,-0.150441,0.085490,-0.150374,0.085235,-0.150494,0.000235,-0.154494,0.000000,-0.154409,-0.000235,-0.154494,-0.085235,-0.150494,-0.085490,-0.150374,
-0.085765,-0.150441,-0.169765,-0.137441,-0.170010,-0.137291,-0.170296,-0.137329,-0.252296,-0.115329,-0.252529,-0.115149,-0.252826,-0.115155,-0.331826,-0.084154,-0.331997,-0.083988,-0.332236,-0.083972,-0.408236,-0.045972,-0.408434,-0.045743,-0.408733,-0.045687,-0.480733,0.001313,-0.480880,0.001528,-0.481131,0.001602,-0.547131,0.054601,-0.547269,0.054854,-0.547535,0.054964,-0.607536,0.114964,
-0.607646,0.115231,-0.607899,0.115370,-0.660899,0.181369,-0.660972,0.181620,-0.661187,0.181767,-0.708187,0.253767,-0.708243,0.254065,-0.708472,0.254264,-0.746472,0.330264,-0.746488,0.330501,-0.746654,0.330673,-0.777654,0.409674,-0.777648,0.409968,-0.777829,0.410204,-0.799829,0.492204,-0.799791,0.492489,-0.799941,0.492735,-0.812941,0.576735,-0.812881,0.576979,-0.812991,0.577206,
-0.817991,0.662206,-0.817939,0.662354,-0.818000,0.662500,-0.817320,0.664142,-0.816738,0.665822,-0.816596,0.665890,-0.816536,0.666036,-0.814891,0.666717,-0.813294,0.667491,-0.813145,0.667439,-0.813000,0.667500,-0.512000,0.667500,-0.510312,0.666801,-0.510312,0.666801,$1*%
G04 Aperture macros list end*
%TA.AperFunction,SMDPad,CuDef*%
%ADD10RoundRect,0.250001X-0.924999X0.499999X-0.924999X-0.499999X0.924999X-0.499999X0.924999X0.499999X0*%
%TD*%
%TA.AperFunction,SMDPad,CuDef*%
%ADD11R,0.600000X0.522000*%
%TD*%
%TA.AperFunction,SMDPad,CuDef*%
%ADD12FreePoly0,0.000000*%
%TD*%
%TA.AperFunction,SMDPad,CuDef*%
%ADD13FreePoly1,0.000000*%
%TD*%
%TA.AperFunction,SMDPad,CuDef*%
%ADD14R,0.300000X0.300000*%
%TD*%
%TA.AperFunction,ComponentPad*%
%ADD15R,1.700000X1.700000*%
%TD*%
%TA.AperFunction,ComponentPad*%
%ADD16O,1.700000X1.700000*%
%TD*%
%TA.AperFunction,SMDPad,CuDef*%
%ADD17RoundRect,0.160000X0.197500X0.160000X-0.197500X0.160000X-0.197500X-0.160000X0.197500X-0.160000X0*%
%TD*%
%TA.AperFunction,ViaPad*%
%ADD18C,0.800000*%
%TD*%
%TA.AperFunction,Conductor*%
%ADD19C,0.304800*%
%TD*%
%TA.AperFunction,Conductor*%
%ADD20C,0.250000*%
%TD*%
%TA.AperFunction,Conductor*%
%ADD21C,0.203200*%
%TD*%
G04 APERTURE END LIST*
D10*
%TO.P,C1,1*%
%TO.N,+3.3V*%
X115316000Y-86767000D03*
%TO.P,C1,2*%
%TO.N,GND*%
X115316000Y-90017000D03*
%TD*%
D11*
%TO.P,MK1,1,WS*%
%TO.N,/WS*%
X118734000Y-84034000D03*
%TO.P,MK1,2,LR*%
%TO.N,+3.3V*%
X118734000Y-84854000D03*
D12*
%TO.P,MK1,3_1,GND*%
%TO.N,GND*%
X119634000Y-85443500D03*
D13*
%TO.P,MK1,3_2,GND__1*%
X119634000Y-86768500D03*
D14*
%TO.P,MK1,4,WAKE*%
%TO.N,/WAKE*%
X118584000Y-86871000D03*
%TO.P,MK1,5,THSEL*%
%TO.N,/THSEL*%
X120684000Y-86871000D03*
D11*
%TO.P,MK1,6,SCK*%
%TO.N,/SCK*%
X120534000Y-84854000D03*
%TO.P,MK1,7,VDD*%
%TO.N,+3.3V*%
X120534000Y-84034000D03*
%TO.P,MK1,8,SD*%
%TO.N,/SD*%
X119634000Y-84034000D03*
%TD*%
D15*
%TO.P,J2,1,Pin_1*%
%TO.N,+3.3V*%
X126741000Y-82052000D03*
D16*
%TO.P,J2,2,Pin_2*%
%TO.N,/SCK*%
X129281000Y-82052000D03*
%TO.P,J2,3,Pin_3*%
%TO.N,GND*%
X126741000Y-84592000D03*
%TO.P,J2,4,Pin_4*%
X129281000Y-84592000D03*
%TO.P,J2,5,Pin_5*%
%TO.N,/WS*%
X126741000Y-87132000D03*
%TO.P,J2,6,Pin_6*%
%TO.N,/THSEL*%
X129281000Y-87132000D03*
%TO.P,J2,7,Pin_7*%
%TO.N,/WAKE*%
X126741000Y-89672000D03*
%TO.P,J2,8,Pin_8*%
%TO.N,/SD*%
X129281000Y-89672000D03*
%TD*%
D17*
%TO.P,R1,1*%
%TO.N,/SD*%
X132931500Y-86106000D03*
%TO.P,R1,2*%
%TO.N,GND*%
X131736500Y-86106000D03*
%TD*%
D18*
%TO.N,+3.3V*%
X115824000Y-84836000D03*
X121920000Y-82296000D03*
%TD*%
D19*
%TO.N,+3.3V*%
X116485000Y-85598000D02*
X115316000Y-86767000D01*
X121666000Y-83934500D02*
X121805500Y-83934500D01*
X115824000Y-84836000D02*
X115824000Y-86259000D01*
D20*
X118734000Y-84754500D02*
X118445500Y-84754500D01*
X121920000Y-83680500D02*
X121666000Y-83934500D01*
D19*
X121805500Y-83934500D02*
X123698000Y-82042000D01*
X118445500Y-84754500D02*
X117602000Y-85598000D01*
X124206000Y-81280000D02*
X124547415Y-81621415D01*
D20*
X115824000Y-86259000D02*
X115316000Y-86767000D01*
X121920000Y-82296000D02*
X121920000Y-83680500D01*
D19*
X123698000Y-82042000D02*
X123698000Y-81788000D01*
X123698000Y-81788000D02*
X124206000Y-81280000D01*
X117602000Y-85598000D02*
X116485000Y-85598000D01*
X124547415Y-81621415D02*
X126602212Y-81621415D01*
X120534000Y-83934500D02*
X121666000Y-83934500D01*
D21*
%TO.N,GND*%
X120162053Y-85598000D02*
X119937453Y-85373400D01*
X118132400Y-87200600D02*
X118132400Y-86596072D01*
X119663400Y-85373400D02*
X119634000Y-85344000D01*
X115316000Y-90017000D02*
X118132400Y-87200600D01*
X125730000Y-84592000D02*
X129281000Y-84592000D01*
X125730000Y-84592000D02*
X123214000Y-84592000D01*
X123197000Y-84575000D02*
X122174000Y-85598000D01*
X118364000Y-86364472D02*
X118364000Y-86339947D01*
X129281000Y-84592000D02*
X129804000Y-84592000D01*
X119359947Y-85344000D02*
X119380000Y-85344000D01*
X119937453Y-85373400D02*
X119663400Y-85373400D01*
X118364000Y-86339947D02*
X119359947Y-85344000D01*
X123214000Y-84592000D02*
X123197000Y-84575000D01*
X122174000Y-85598000D02*
X120162053Y-85598000D01*
X131318000Y-86106000D02*
X131736500Y-86106000D01*
X129804000Y-84592000D02*
X131318000Y-86106000D01*
X118132400Y-86596072D02*
X118364000Y-86364472D01*
X125730000Y-84592000D02*
X126741000Y-84592000D01*
%TO.N,/SCK*%
X120534000Y-84754500D02*
X122001500Y-84754500D01*
X122001500Y-84754500D02*
X123552400Y-83203600D01*
X123552400Y-83203600D02*
X128129400Y-83203600D01*
X128129400Y-83203600D02*
X129281000Y-82052000D01*
%TO.N,/WS*%
X109728000Y-89662000D02*
X112522000Y-92456000D01*
X118734000Y-83934500D02*
X111137500Y-83934500D01*
X112522000Y-92456000D02*
X126492000Y-92456000D01*
X126492000Y-92456000D02*
X128129400Y-90818600D01*
X128129400Y-90818600D02*
X128129400Y-88520400D01*
X109982000Y-85090000D02*
X109982000Y-89408000D01*
X111137500Y-83934500D02*
X109982000Y-85090000D01*
X128129400Y-88520400D02*
X126741000Y-87132000D01*
X109982000Y-89408000D02*
X109728000Y-89662000D01*
%TO.N,/THSEL*%
X123753844Y-85852000D02*
X128001000Y-85852000D01*
X120684000Y-86771500D02*
X122270500Y-86771500D01*
X122270500Y-86771500D02*
X123471922Y-85570078D01*
X128001000Y-85852000D02*
X129281000Y-87132000D01*
X123471922Y-85570078D02*
X123753844Y-85852000D01*
%TO.N,/WAKE*%
X124389000Y-88575000D02*
X124643000Y-88575000D01*
X124389000Y-88575000D02*
X124455000Y-88575000D01*
X125740000Y-89672000D02*
X126741000Y-89672000D01*
X120387500Y-88575000D02*
X124389000Y-88575000D01*
X118584000Y-86771500D02*
X120387500Y-88575000D01*
X124643000Y-88575000D02*
X125740000Y-89672000D01*
%TO.N,/SD*%
X132842000Y-82550000D02*
X132842000Y-85598000D01*
X132842000Y-85598000D02*
X132931500Y-85687500D01*
X131562000Y-89672000D02*
X129281000Y-89672000D01*
X119634000Y-82296000D02*
X121358000Y-80572000D01*
X132842000Y-86614000D02*
X132842000Y-88392000D01*
X132842000Y-88392000D02*
X131562000Y-89672000D01*
X132931500Y-86524500D02*
X132842000Y-86614000D01*
X121358000Y-80572000D02*
X130864000Y-80572000D01*
X119634000Y-83934500D02*
X119634000Y-82296000D01*
X132931500Y-86106000D02*
X132931500Y-86524500D01*
X132931500Y-85687500D02*
X132931500Y-86106000D01*
X130864000Y-80572000D02*
X132842000Y-82550000D01*
%TD*%
M02*
